HIERARCHY
ROOT Hips
{
  OFFSET 53.4139 95.7159 11.2958
  CHANNELS 6 Xposition Yposition Zposition Zrotation Xrotation Yrotation
  JOINT spine
  {
    OFFSET 0 7.96568 0.458067
    CHANNELS 3 Zrotation Xrotation Yrotation
    JOINT spine1
    {
      OFFSET 0 10.2431 0
      CHANNELS 3 Zrotation Xrotation Yrotation
      JOINT spine2
      {
        OFFSET 0 9.81475 0
        CHANNELS 3 Zrotation Xrotation Yrotation
        JOINT Neck
        {
          OFFSET 0 25.1986 1.20138
          CHANNELS 3 Zrotation Xrotation Yrotation
          JOINT Head
          {
            OFFSET 0 7.61315 0
            CHANNELS 3 Zrotation Xrotation Yrotation
            End Site
            {
              OFFSET 0 18.4281 -6.07733
            }
          }
        }
        JOINT RightShoulder
        {
          OFFSET -4.1327 10.5992 -0.575451
          CHANNELS 3 Zrotation Xrotation Yrotation
          JOINT RightArm
          {
            OFFSET 0 13.9018 0
            CHANNELS 3 Zrotation Xrotation Yrotation
            JOINT RightArmRoll
            {
              OFFSET 0 7.01788 0
              CHANNELS 3 Zrotation Xrotation Yrotation
              JOINT RightForeArm
              {
                OFFSET 0 20.4406 0
                CHANNELS 3 Zrotation Xrotation Yrotation
                JOINT RightForeArmRoll
                {
                  OFFSET 0 7.87515 0
                  CHANNELS 3 Zrotation Xrotation Yrotation
                  JOINT RightHand
                  {
                    OFFSET 0 15.8037 0
                    CHANNELS 3 Zrotation Xrotation Yrotation
                    End Site
                    {
                      OFFSET 0 0 0
                    }
                  }
                }
              }
            }
          }
        }
        JOINT LeftShoulder
        {
          OFFSET 4.1327 10.5992 -0.575451
          CHANNELS 3 Zrotation Xrotation Yrotation
          JOINT LeftArm
          {
            OFFSET 0 13.9018 0
            CHANNELS 3 Zrotation Xrotation Yrotation
            JOINT LeftArmRoll
            {
              OFFSET 0 7.01789 0
              CHANNELS 3 Zrotation Xrotation Yrotation
              JOINT LeftForeArm
              {
                OFFSET 0 20.4406 0
                CHANNELS 3 Zrotation Xrotation Yrotation
                JOINT LeftForeArmRoll
                {
                  OFFSET 0 7.87515 0
                  CHANNELS 3 Zrotation Xrotation Yrotation
                  JOINT LeftHand
                  {
                    OFFSET 0 15.8037 0
                    CHANNELS 3 Zrotation Xrotation Yrotation
                    End Site
                    {
                      OFFSET 0 0 0
                    }
                  }
                }
              }
            }
          }
        }
      }
    }
  }
  JOINT RightUpLeg
  {
    OFFSET -7.06048 -1.2947 -1.0861
    CHANNELS 3 Zrotation Xrotation Yrotation
    JOINT RightUpLegRoll
    {
      OFFSET 0 18.5308 0
      CHANNELS 3 Zrotation Xrotation Yrotation
      JOINT RightLeg
      {
        OFFSET 0 -22.9476 0
        CHANNELS 3 Zrotation Xrotation Yrotation
        JOINT RightLegRoll
        {
          OFFSET 0 23.0226 0
          CHANNELS 3 Zrotation Xrotation Yrotation
          JOINT RightFoot
          {
            OFFSET 0 19.1625 0
            CHANNELS 3 Zrotation Xrotation Yrotation
            JOINT RightToeBase
            {
              OFFSET 0 16.0188 0
              CHANNELS 3 Zrotation Xrotation Yrotation
              End Site
              {
                OFFSET 0.00678979 7.75782 -0.894207
              }
            }
          }
        }
      }
    }
  }
  JOINT LeftUpLeg
  {
    OFFSET 7.06048 -1.2947 -1.0861
    CHANNELS 3 Zrotation Xrotation Yrotation
    JOINT LeftUpLegRoll
    {
      OFFSET 0 18.5309 0
      CHANNELS 3 Zrotation Xrotation Yrotation
      JOINT LeftLeg
      {
        OFFSET 0 22.9475 0
        CHANNELS 3 Zrotation Xrotation Yrotation
        JOINT LeftLegRoll
        {
          OFFSET 0 23.2355 0
          CHANNELS 3 Zrotation Xrotation Yrotation
          JOINT LeftFoot
          {
            OFFSET 0 18.9496 0
            CHANNELS 3 Zrotation Xrotation Yrotation
            JOINT LeftToeBase
            {
              OFFSET 0 16.0188 0
              CHANNELS 3 Zrotation Xrotation Yrotation
              End Site
              {
                OFFSET -0.0304289 7.75782 -0.894206
              }
            }
          }
        }
      }
    }
  }
}
MOTION
Frames: 7
Frame Time: 0.00208333
52.5366 95.6686 10.4012 -0.631897 -3.09311 0.489156 0.106226 -1.90943 -0.0943358 0.210336 0.189087 -0.1682 0.212479 1.83414 -0.171814 5.12622 27.8674 -2.02253 -4.00475 -6.76794 -0.662282 77.0668 1.50655 -1.47871 100.457 18.7107 26.1844 -1.11363e-006 -5.89903e-007 6.29123e-006 -0.843525 -0.0150506 0.0438187 -4.83244e-006 3.6041e-007 -3.06055 8.03027 -4.95137 0.697637 -72.6268 3.60315 -0.0268054 -106.971 19.2122 -20.854 2.64769e-007 5.1153e-006 -5.35617e-006 1.11949 -0.00317426 -0.422422 6.30047e-006 -2.10485e-006 3.01024 -8.03028 -4.95135 -0.697633 175.561 -3.98617 -1.94541 -180 7.01515e-015 178.793 177.864 3.99186 179.587 -4.1166e-006 -2.10886e-006 0.0500505 -18.8209 67.9324 19.4613 8.14572 25.3777 -3.29331 -172.662 -0.715309 -0.57988 4.5067e-006 -1.99009e-005 -1.1393 -2.21979 -6.64408 0.140903 1.95888e-006 -6.39151e-006 -0.00815281 17.8659 68.2585 -19.7182 -8.1365 25.2327 3.48774 
52.5354 95.6649 10.4027 -0.62382 -3.09794 0.490735 0.103895 -1.90783 -0.0947219 0.205644 0.192492 -0.171276 0.207819 1.83755 -0.17481 5.11541 27.8511 -2.01443 -4.0016 -6.74204 -0.657736 77.0621 1.50849 -1.47737 100.451 18.718 26.315 -1.11363e-006 -5.89903e-007 6.29123e-006 -0.977396 -0.0152797 0.0555734 -4.83244e-006 3.6041e-007 -3.06062 8.03027 -4.95137 0.697637 -72.6163 3.59417 -0.0241956 -106.974 19.2089 -20.8386 2.64769e-007 5.1153e-006 -5.35617e-006 1.10213 -0.00317428 -0.422395 6.30047e-006 -2.10485e-006 3.01024 -8.03028 -4.95135 -0.697633 175.552 -3.99332 -1.93897 -180 7.01515e-015 178.793 177.862 3.98879 179.587 -4.1166e-006 -2.10886e-006 0.0494037 -18.8209 67.9324 19.4613 8.14567 25.3771 -3.29419 -172.673 -0.729078 -0.572681 4.5067e-006 -1.99009e-005 -1.13936 -2.2183 -6.63083 0.140898 1.95888e-006 -6.39151e-006 -0.00815281 17.8731 68.2577 -19.7191 -8.1365 25.2327 3.48774 
52.5314 95.6594 10.4036 -0.615295 -3.10316 0.492136 0.101503 -1.90614 -0.095121 0.200831 0.196094 -0.174456 0.203039 1.84115 -0.177907 5.10359 27.834 -2.00584 -3.99767 -6.71506 -0.652955 77.0573 1.51108 -1.47576 100.447 18.7264 26.4457 -1.11363e-006 -5.89903e-007 6.29123e-006 -1.11247 -0.0154981 0.067339 -4.83244e-006 3.6041e-007 -3.06068 8.03027 -4.95137 0.697637 -72.6062 3.58487 -0.0213722 -106.975 19.2051 -20.8226 2.64769e-007 5.1153e-006 -5.35617e-006 1.08333 -0.0031743 -0.422363 6.30047e-006 -2.10485e-006 3.01024 -8.03028 -4.95135 -0.697633 175.543 -4.001 -1.93202 -180 7.01515e-015 178.793 177.859 3.98529 179.587 -4.1166e-006 -2.10886e-006 0.0487246 -18.8208 67.9323 19.4611 8.14562 25.3763 -3.29524 -172.684 -0.743865 -0.565032 4.5067e-006 -1.99009e-005 -1.13944 -2.21668 -6.6167 0.140885 1.95888e-006 -6.39151e-006 -0.00815281 17.8806 68.2568 -19.7199 -8.1365 25.2327 3.48774 
52.5441 95.66 10.4222 -0.606456 -3.10865 0.493414 0.0990696 -1.90439 -0.0955293 0.195933 0.199835 -0.177707 0.198175 1.84489 -0.181074 5.09106 27.8164 -1.99689 -3.99319 -6.68733 -0.648009 77.0525 1.51412 -1.47396 100.443 18.7355 26.5763 -1.11363e-006 -5.89903e-007 6.29123e-006 -1.24838 -0.015709 0.0791124 -4.83244e-006 3.6041e-007 -3.06074 8.03027 -4.95137 0.697637 -72.5965 3.57533 -0.0183991 -106.976 19.2011 -20.8061 2.64769e-007 5.1153e-006 -5.35617e-006 1.06353 -0.00317432 -0.422329 6.30047e-006 -2.10485e-006 3.01024 -8.03028 -4.95135 -0.697633 175.533 -4.00906 -1.92473 -180 7.01515e-015 178.793 177.856 3.98149 179.587 -4.1166e-006 -2.10886e-006 0.0480229 -18.8205 67.932 19.4609 8.14556 25.3754 -3.29642 -172.696 -0.759364 -0.557069 4.5067e-006 -1.99009e-005 -1.13955 -2.21497 -6.60196 0.140865 1.95888e-006 -6.39151e-006 -0.00815281 17.8885 68.2559 -19.7208 -8.1365 25.2327 3.48774 
52.5441 95.6702 10.421 -0.597437 -3.1143 0.49462 0.096612 -1.90261 -0.0959427 0.190988 0.203655 -0.180999 0.193264 1.84871 -0.184282 5.07814 27.7985 -1.98775 -3.98841 -6.65917 -0.64297 77.0476 1.51741 -1.47204 100.44 18.745 26.707 -1.11363e-006 -5.89903e-007 6.29123e-006 -1.38478 -0.0159157 0.0908901 -4.83244e-006 3.6041e-007 -3.06079 8.03027 -4.95137 0.697637 -72.5869 3.56567 -0.0153407 -106.976 19.1968 -20.7893 2.64769e-007 5.1153e-006 -5.35617e-006 1.04316 -0.00317434 -0.422294 6.30047e-006 -2.10485e-006 3.01024 -8.03028 -4.95135 -0.697633 175.523 -4.01733 -1.91723 -180 7.01515e-015 178.793 177.853 3.97754 179.587 -4.1166e-006 -2.10886e-006 0.0473083 -18.8202 67.9316 19.4605 8.14549 25.3745 -3.29767 -172.708 -0.775269 -0.548926 4.5067e-006 -1.99009e-005 -1.13966 -2.21321 -6.58687 0.140842 1.95888e-006 -6.39151e-006 -0.00815281 17.8965 68.2549 -19.7216 -8.1365 25.2327 3.48774 
52.5283 95.672 10.4038 -0.588373 -3.11999 0.495809 0.0941484 -1.90082 -0.0963574 0.18603 0.207495 -0.184301 0.188341 1.85255 -0.187499 5.06512 27.7804 -1.97856 -3.98356 -6.63091 -0.637907 77.0427 1.52076 -1.4701 100.437 18.7544 26.8377 -1.11363e-006 -5.89903e-007 6.29123e-006 -1.52129 -0.0161213 0.102669 -4.83244e-006 3.6041e-007 -3.06085 8.03027 -4.95137 0.697637 -72.5774 3.55597 -0.0122609 -106.977 19.1925 -20.7725 2.64769e-007 5.1153e-006 -5.35617e-006 1.02265 -0.00317436 -0.422258 6.30047e-006 -2.10485e-006 3.01024 -8.03028 -4.95135 -0.697633 175.512 -4.02566 -1.90968 -180 7.01515e-015 178.793 177.85 3.97355 179.588 -4.1166e-006 -2.10886e-006 0.0465904 -18.8199 67.9313 19.4602 8.14543 25.3735 -3.29894 -172.72 -0.791276 -0.540739 4.5067e-006 -1.99009e-005 -1.13978 -2.21144 -6.57169 0.140819 1.95888e-006 -6.39151e-006 -0.00815281 17.9046 68.2539 -19.7225 -8.1365 25.2327 3.48774 
52.5318 95.6889 10.4117 -0.579399 -3.1256 0.497033 0.0916969 -1.89904 -0.0967695 0.181098 0.211295 -0.187583 0.183443 1.85636 -0.190696 5.0523 27.7626 -1.96947 -3.97886 -6.60285 -0.632893 77.0378 1.52399 -1.46821 100.434 18.7634 26.9684 -1.11363e-006 -5.89903e-007 6.29123e-006 -1.65757 -0.0163291 0.114446 -4.83244e-006 3.6041e-007 -3.0609 8.03027 -4.95137 0.697637 -72.5678 3.54634 -0.0092239 -106.977 19.1883 -20.7558 2.64769e-007 5.1153e-006 -5.35617e-006 1.00242 -0.00317438 -0.422223 6.30047e-006 -2.10485e-006 3.01024 -8.03028 -4.95135 -0.697633 175.502 -4.03388 -1.90223 -180 7.01515e-015 178.793 177.847 3.96962 179.588 -4.1166e-006 -2.10886e-006 0.0458791 -18.8197 67.931 19.4599 8.14536 25.3726 -3.30017 -172.731 -0.80708 -0.53264 4.5067e-006 -1.99009e-005 -1.1399 -2.20969 -6.55668 0.140797 1.95888e-006 -6.39151e-006 -0.00815281 17.9126 68.2529 -19.7233 -8.1365 25.2327 3.48774 
